<svg x="0" y="0" version="1.1" xmlns="http://www.w3.org/2000/svg" xmlns:xlink="http://www.w3.org/1999/xlink" viewBox="0 0 50 50" width="100" height="100" style="fill: rgb(255, 255, 255);"><g fill="none" stroke="none" stroke-width="1" stroke-linecap="butt" stroke-linejoin="miter" stroke-miterlimit="10" stroke-dasharray="" stroke-dashoffset="0" font-family="sans-serif" font-weight="normal" font-size="12" text-anchor="start" mix-blend-mode="normal"><g><g><path d="M0,50l0,-50l50,0l0,50z" fill="none"/><path d="M25,48.75c-13.11676,0 -23.75,-10.63324 -23.75,-23.75l0,0c0,-13.11676 10.63324,-23.75 23.75,-23.75l0,0c13.11676,0 23.75,10.63324 23.75,23.75l0,0c0,13.11676 -10.63324,23.75 -23.75,23.75z" fill="#000000"/><g fill="#ffffff"><path d="M35.1615,8.59988c-0.34181,-0.00397 -0.64648,0.21481 -0.75197,0.53995l-3.88492,11.95525l-11.04922,0l-3.88492,-11.95525c-0.10272,-0.31528 -0.39332,-0.53133 -0.72483,-0.53888c-0.3315,-0.00755 -0.63164,0.19505 -0.74861,0.50532l-4.68265,12.48757c-0.00103,0.00254 -0.00205,0.00508 -0.00305,0.00763l-2.34285,6.2476c-0.12344,0.3287 -0.01237,0.69938 0.2715,0.90602l17.1748,12.49062l0.0061,0.00458c0.00051,0.00051 0.00102,0.00102 0.00153,0.00153c0.01052,0.00687 0.0212,0.01348 0.03203,0.01983c0.0105,0.00738 0.02118,0.0145 0.03203,0.02135c0.00203,0.00103 0.00406,0.00204 0.0061,0.00305c0.00152,0.00102 0.00305,0.00204 0.00458,0.00305c0.00455,0.00259 0.00913,0.00513 0.01373,0.00763c0.00405,0.00207 0.00812,0.0041 0.0122,0.0061c0.0165,0.00822 0.03329,0.01585 0.05033,0.02288c0.00051,0.00051 0.00102,0.00102 0.00153,0.00153c0.01755,0.00726 0.03535,0.01387 0.05338,0.01983c0.00102,0.00051 0.00203,0.00102 0.00305,0.00153c0.01361,0.00444 0.02735,0.00851 0.04118,0.0122c0.00658,0.00212 0.01319,0.00416 0.01983,0.0061c0.00051,0 0.00102,0 0.00153,0c0.01516,0.00351 0.03042,0.00656 0.04576,0.00915c0.02021,0.00385 0.04056,0.00691 0.06101,0.00915c0.03194,0.00299 0.06403,0.00401 0.09609,0.00305c0.02805,-0.00053 0.05606,-0.00256 0.08389,-0.0061c0.01071,-0.0013 0.02139,-0.00283 0.03203,-0.00458c0.00254,-0.0005 0.00509,-0.001 0.00763,-0.00153c0.00458,-0.00047 0.00916,-0.00098 0.01373,-0.00153c0.00408,-0.00098 0.00814,-0.002 0.0122,-0.00305c0.00766,-0.00192 0.01528,-0.00395 0.02288,-0.0061c0.01074,-0.00282 0.02142,-0.00587 0.03203,-0.00915c0.00305,-0.00049 0.0061,-0.001 0.00915,-0.00153c0.00306,-0.001 0.00611,-0.00201 0.00915,-0.00305c0.01387,-0.0047 0.0276,-0.00978 0.04118,-0.01525c0.01388,-0.0052 0.02762,-0.0108 0.04118,-0.01678c0.00102,-0.00051 0.00204,-0.00101 0.00305,-0.00153c0.00357,-0.0015 0.00713,-0.00302 0.01068,-0.00458c0.00665,-0.00296 0.01326,-0.00601 0.01983,-0.00915c0.01662,-0.00907 0.0329,-0.01873 0.04881,-0.02898c0.00409,-0.0025 0.00816,-0.00505 0.0122,-0.00763c0.00204,-0.00101 0.00407,-0.00202 0.0061,-0.00305c0.01243,-0.00779 0.02464,-0.01593 0.03661,-0.0244l0.00915,-0.00763l17.17175,-12.48757c0.28387,-0.20665 0.39495,-0.57732 0.2715,-0.90602l-2.33522,-6.22625c-0.00244,-0.00715 -0.00498,-0.01427 -0.00763,-0.02135l-4.6857,-12.4952c-0.11316,-0.30134 -0.3996,-0.5024 -0.72146,-0.5064z M11.77571,22.65698l6.56486,0l4.57283,14.0693z M31.65943,22.65698l6.56486,0l-11.13769,14.0693z M10.40752,23.44403l10.44368,13.19226l-12.09252,-8.79484z M39.59248,23.44403l1.64884,4.39742l-12.09252,8.79484z"/></g></g></g></g></svg>