<svg x="0" y="0" version="1.1" xmlns="http://www.w3.org/2000/svg" viewBox="0 0 48 48" width="96" height="96"
     style="fill: rgb(155, 89, 182);">
    <g fill="none" stroke="none" stroke-width="1" stroke-linecap="butt" stroke-linejoin="miter" stroke-miterlimit="10"
       stroke-dasharray="" stroke-dashoffset="0" font-family="sans-serif" font-weight="normal" font-size="12"
       text-anchor="start" mix-blend-mode="normal">
        <g>
            <g>
                <path d="M0,48l0,-48l48,0l0,48z" fill="none"/>
                <path d="M24,46.8c-12.59209,0 -22.8,-10.20791 -22.8,-22.8l0,0c0,-12.59209 10.20791,-22.8 22.8,-22.8l0,0c12.59209,0 22.8,10.20791 22.8,22.8l0,0c0,12.59209 -10.20791,22.8 -22.8,22.8z"
                      fill="#000000"/>
                <g>
                    <g fill="#ffffff">
                        <rect x="10.85714" y="17.85714" transform="scale(1.05,1.05)" width="5" height="17"/>
                        <path d="M14.00925,16.65l-0.0294,0c-1.5666,0 -2.57985,-1.1676 -2.57985,-2.62605c0,-1.48995 1.04475,-2.62395 2.6397,-2.62395c1.59705,0 2.5809,1.134 2.6103,2.62395c0,1.4574 -1.01325,2.62605 -2.64075,2.62605z"/>
                        <path d="M36.6,36.6l-5.25,0l0,-9.55395c0,-2.3079 -1.28625,-3.8829 -3.3516,-3.8829c-1.57605,0 -2.42865,1.0626 -2.84235,2.0895c-0.1512,0.3675 -0.10605,1.3839 -0.10605,1.89735l0,9.45l-5.25,0l0,-17.85l5.25,0l0,2.7468c0.75705,-1.1718 1.9425,-2.7468 4.9749,-2.7468c3.7569,0 6.57405,2.3625 6.57405,7.6377z"/>
                    </g>
                </g>
            </g>
        </g>
    </g>
</svg>
