<svg x="0" y="0" version="1.1" xmlns="http://www.w3.org/2000/svg" xmlns:xlink="http://www.w3.org/1999/xlink" viewBox="0 0 50 50" width="100" height="100" style="fill: rgb(255, 255, 255);"><g fill="none" stroke="none" stroke-width="1" stroke-linecap="butt" stroke-linejoin="none" stroke-miterlimit="10" stroke-dasharray="" stroke-dashoffset="0" font-family="sans-serif" font-weight="normal" font-size="12" text-anchor="start" mix-blend-mode="normal"><g><g><path d="M0,50l0,-50l50,0l0,50z" fill="none" stroke-linejoin="miter"/><path d="M25,48.75c-13.11676,0 -23.75,-10.63324 -23.75,-23.75l0,0c0,-13.11676 10.63324,-23.75 23.75,-23.75l0,0c13.11676,0 23.75,10.63324 23.75,23.75l0,0c0,13.11676 -10.63324,23.75 -23.75,23.75z" fill="#000000" stroke-linejoin="miter"/><g fill="#ffffff" stroke-linejoin="round"><path d="M38.04512,6.50156l-2.45469,0.42188l2.66406,14.56719l2.27188,-0.29844z M29.27793,10.07031l-2.29375,1.38281l8.16094,11.96562l2.01406,-1.24687z M21.93887,17.01406l-1.34531,2.13594l12.30938,7.43906l1.12031,-1.93594z M18.40449,24.50938l-0.59688,2.4l14.18438,3.59687l0.225,-2.15625z M12.50293,28.18906l0,15.1875l23.92188,0.0125l0,-0.0125c0.024,0 0.07812,-15.1875 0.07812,-15.1875l-2.4,0l0,12.8l-19.2,0l0,-12.8z M17.42324,30.87188l-0.2,2.38906l14.47969,1.32812l0.16094,-2z M17.22324,36.18906l0.07969,2.4l14.4,-0.05625l0,-2.34375z"/></g></g></g></g></svg>